<svg xmlns="http://www.w3.org/2000/svg" width="900" height="463" viewBox="0 0 900 463" role="img" aria-labelledby="title desc">
<title id="title">Variação em 7 dias: Investimentos EA FC: Argentinos em 21/07 — Console (PS)</title>
<desc id="desc">Gráfico gerado a partir da tabela publicada neste artigo.</desc>
<rect width="100%" height="100%" rx="20" fill="#0f172a"/>
<text x="28" y="42" fill="#f8fafc" font-family="system-ui,sans-serif" font-size="23" font-weight="700">Variação em 7 dias</text>
<text x="28" y="70" fill="#94a3b8" font-family="system-ui,sans-serif" font-size="15">Dados do recorte publicado no artigo</text>
<text x="28" y="117" fill="#e2e8f0" font-family="system-ui,sans-serif" font-size="16">Paulo Dybala</text>
<rect x="285" y="95" width="480" height="28" rx="7" fill="#22c55e"/>
<text x="775" y="116" fill="#f8fafc" font-family="system-ui,sans-serif" font-size="15" font-weight="700">+45.7%</text>
<text x="28" y="175" fill="#e2e8f0" font-family="system-ui,sans-serif" font-size="16">Santiago Hidalgo</text>
<rect x="285" y="153" width="308" height="28" rx="7" fill="#22c55e"/>
<text x="603" y="174" fill="#f8fafc" font-family="system-ui,sans-serif" font-size="15" font-weight="700">+29.3%</text>
<text x="28" y="233" fill="#e2e8f0" font-family="system-ui,sans-serif" font-size="16">Gerónimo Rulli</text>
<rect x="285" y="211" width="278" height="28" rx="7" fill="#22c55e"/>
<text x="573" y="232" fill="#f8fafc" font-family="system-ui,sans-serif" font-size="15" font-weight="700">+26.5%</text>
<text x="28" y="291" fill="#e2e8f0" font-family="system-ui,sans-serif" font-size="16">Matías Vargas</text>
<rect x="285" y="269" width="246" height="28" rx="7" fill="#22c55e"/>
<text x="541" y="290" fill="#f8fafc" font-family="system-ui,sans-serif" font-size="15" font-weight="700">+23.4%</text>
<text x="28" y="349" fill="#e2e8f0" font-family="system-ui,sans-serif" font-size="16">Rafael Profini</text>
<rect x="285" y="327" width="193" height="28" rx="7" fill="#22c55e"/>
<text x="488" y="348" fill="#f8fafc" font-family="system-ui,sans-serif" font-size="15" font-weight="700">+18.4%</text>
<text x="28" y="407" fill="#e2e8f0" font-family="system-ui,sans-serif" font-size="16">Alexis Mac Allister</text>
<rect x="285" y="385" width="120" height="28" rx="7" fill="#22c55e"/>
<text x="415" y="406" fill="#f8fafc" font-family="system-ui,sans-serif" font-size="15" font-weight="700">+11.4%</text>
</svg>
