<svg xmlns="http://www.w3.org/2000/svg" width="900" height="463" viewBox="0 0 900 463" role="img" aria-labelledby="title desc">
<title id="title">Variação em 7 dias: Investimentos EA FC: Argentinos em 22/07 — PC</title>
<desc id="desc">Gráfico gerado a partir da tabela publicada neste artigo.</desc>
<rect width="100%" height="100%" rx="20" fill="#0f172a"/>
<text x="28" y="42" fill="#f8fafc" font-family="system-ui,sans-serif" font-size="23" font-weight="700">Variação em 7 dias</text>
<text x="28" y="70" fill="#94a3b8" font-family="system-ui,sans-serif" font-size="15">Dados do recorte publicado no artigo</text>
<text x="28" y="117" fill="#e2e8f0" font-family="system-ui,sans-serif" font-size="16">Giovani Lo Celso</text>
<rect x="285" y="95" width="480" height="28" rx="7" fill="#22c55e"/>
<text x="775" y="116" fill="#f8fafc" font-family="system-ui,sans-serif" font-size="15" font-weight="700">+62.2%</text>
<text x="28" y="175" fill="#e2e8f0" font-family="system-ui,sans-serif" font-size="16">Lautaro Martínez</text>
<rect x="285" y="153" width="472" height="28" rx="7" fill="#22c55e"/>
<text x="767" y="174" fill="#f8fafc" font-family="system-ui,sans-serif" font-size="15" font-weight="700">+61.1%</text>
<text x="28" y="233" fill="#e2e8f0" font-family="system-ui,sans-serif" font-size="16">Marcos Acuña</text>
<rect x="285" y="211" width="469" height="28" rx="7" fill="#22c55e"/>
<text x="764" y="232" fill="#f8fafc" font-family="system-ui,sans-serif" font-size="15" font-weight="700">+60.8%</text>
<text x="28" y="291" fill="#e2e8f0" font-family="system-ui,sans-serif" font-size="16">Cristian Romero</text>
<rect x="285" y="269" width="288" height="28" rx="7" fill="#22c55e"/>
<text x="583" y="290" fill="#f8fafc" font-family="system-ui,sans-serif" font-size="15" font-weight="700">+37.3%</text>
<text x="28" y="349" fill="#e2e8f0" font-family="system-ui,sans-serif" font-size="16">Javier Zanetti</text>
<rect x="285" y="327" width="225" height="28" rx="7" fill="#22c55e"/>
<text x="520" y="348" fill="#f8fafc" font-family="system-ui,sans-serif" font-size="15" font-weight="700">+29.1%</text>
<text x="28" y="407" fill="#e2e8f0" font-family="system-ui,sans-serif" font-size="16">Santiago Castro</text>
<rect x="285" y="385" width="164" height="28" rx="7" fill="#22c55e"/>
<text x="459" y="406" fill="#f8fafc" font-family="system-ui,sans-serif" font-size="15" font-weight="700">+21.2%</text>
</svg>
