<svg xmlns="http://www.w3.org/2000/svg" width="900" height="463" viewBox="0 0 900 463" role="img" aria-labelledby="title desc">
<title id="title">Variação em 7 dias: Investimentos EA FC: Argentinos em 18/07 — PC</title>
<desc id="desc">Gráfico gerado a partir da tabela publicada neste artigo.</desc>
<rect width="100%" height="100%" rx="20" fill="#0f172a"/>
<text x="28" y="42" fill="#f8fafc" font-family="system-ui,sans-serif" font-size="23" font-weight="700">Variação em 7 dias</text>
<text x="28" y="70" fill="#94a3b8" font-family="system-ui,sans-serif" font-size="15">Dados do recorte publicado no artigo</text>
<text x="28" y="117" fill="#e2e8f0" font-family="system-ui,sans-serif" font-size="16">Estefanía Banini</text>
<rect x="285" y="95" width="480" height="28" rx="7" fill="#22c55e"/>
<text x="775" y="116" fill="#f8fafc" font-family="system-ui,sans-serif" font-size="15" font-weight="700">+64.8%</text>
<text x="28" y="175" fill="#e2e8f0" font-family="system-ui,sans-serif" font-size="16">Pablo Aimar</text>
<rect x="285" y="153" width="422" height="28" rx="7" fill="#22c55e"/>
<text x="717" y="174" fill="#f8fafc" font-family="system-ui,sans-serif" font-size="15" font-weight="700">+57.0%</text>
<text x="28" y="233" fill="#e2e8f0" font-family="system-ui,sans-serif" font-size="16">Hernán Crespo</text>
<rect x="285" y="211" width="259" height="28" rx="7" fill="#22c55e"/>
<text x="554" y="232" fill="#f8fafc" font-family="system-ui,sans-serif" font-size="15" font-weight="700">+35.0%</text>
<text x="28" y="291" fill="#e2e8f0" font-family="system-ui,sans-serif" font-size="16">Matías Vargas</text>
<rect x="285" y="269" width="187" height="28" rx="7" fill="#22c55e"/>
<text x="482" y="290" fill="#f8fafc" font-family="system-ui,sans-serif" font-size="15" font-weight="700">+25.3%</text>
<text x="28" y="349" fill="#e2e8f0" font-family="system-ui,sans-serif" font-size="16">Javier Zanetti</text>
<rect x="285" y="327" width="176" height="28" rx="7" fill="#22c55e"/>
<text x="471" y="348" fill="#f8fafc" font-family="system-ui,sans-serif" font-size="15" font-weight="700">+23.7%</text>
<text x="28" y="407" fill="#e2e8f0" font-family="system-ui,sans-serif" font-size="16">Nico Paz</text>
<rect x="285" y="385" width="167" height="28" rx="7" fill="#22c55e"/>
<text x="462" y="406" fill="#f8fafc" font-family="system-ui,sans-serif" font-size="15" font-weight="700">+22.6%</text>
</svg>
